<?xml version="1.0" encoding="iso-8859-1"?>
<!-- Generator: Adobe Illustrator 19.0.0, SVG Export Plug-In . SVG Version: 6.00 Build 0)  -->
<svg version="1.1" id="Capa_1" xmlns="http://www.w3.org/2000/svg" xmlns:xlink="http://www.w3.org/1999/xlink" x="0px" y="0px"
	 viewBox="0 0 512.003 512.003" style="enable-background:new 0 0 512.003 512.003;" xml:space="preserve">
<g>
	<g>
		<g>
			<path d="M454.33,249.831c7.27-27.978,25.602-117.125-11.445-193.808c-1.341-2.77-4.069-4.604-7.141-4.8
				c-3.071-0.196-6.011,1.277-7.693,3.854c-5.128,7.823-11.266,14.936-18.255,21.153c0.35-13.567-2.82-26.993-9.203-38.97
				C389.89,18.89,372.296,5.552,351.718,0.207c-4.229-0.946-8.493,1.434-9.908,5.53c-2.175,1.912-16.392,11.333-85.808,11.333
				C198.02,17.763,141.454,35.08,93.021,66.965c-3.292-3.755-6.325-7.729-9.078-11.895c-1.683-2.574-4.621-4.043-7.691-3.846
				c-3.069,0.198-5.795,2.031-7.134,4.8c-37.047,76.683-18.716,165.83-11.445,193.808c-9.118,4.142-14.981,13.223-15.005,23.237
				v51.2c0.015,14.132,11.468,25.585,25.6,25.6h25.226c12.995,52.02,46.404,121.489,132.041,156.271
				c9.669,3.907,20.005,5.898,30.433,5.862h0.067c10.429,0.036,20.765-1.956,30.433-5.867
				c85.636-34.78,119.045-104.247,132.041-156.267h25.226c14.132-0.015,25.585-11.468,25.6-25.6v-51.2
				C469.312,263.054,463.449,253.973,454.33,249.831z M68.268,332.802c-4.711-0.005-8.529-3.822-8.533-8.533v-51.2
				c0.005-4.706,3.816-8.521,8.522-8.531l0.011,0.002l0.027-0.004h17.04v19.873c-0.02,0.554-0.066,2.53-0.018,5.727h-8.515
				c-4.713,0-8.533,3.82-8.533,8.533s3.82,8.533,8.533,8.533h9.457c0.651,7.27,1.733,15.927,3.518,25.6H68.268z M280.051,490.323
				c-7.638,3.057-15.79,4.623-24.017,4.613h-0.067c-8.226,0.009-16.378-1.555-24.017-4.608
				c-135.017-54.842-129.85-199.234-129.559-205.35c0.003-0.069-0.032-0.128-0.03-0.196c0.002-0.068,0.039-0.124,0.039-0.191
				v-20.054c-0.015-6.931,0.472-13.855,1.457-20.716c4.427-13.492,20.048-53.27,48.068-47.718
				c28.389,6.45,58.177,0.025,81.383-17.554c9.946-8.254,17.734-18.804,22.692-30.74c4.958,11.936,12.746,22.486,22.692,30.74
				c23.208,17.575,52.994,24,81.383,17.554c27.756-5.548,43.193,32.88,48.071,47.745c0.983,6.852,1.469,13.766,1.454,20.688v20.054
				c0,0.069,0.037,0.126,0.039,0.194c0.002,0.071-0.034,0.131-0.031,0.202C409.685,286.482,415.352,435.373,280.051,490.323z
				 M356.727,179.369c-23.377,5.447-47.966,0.319-67.217-14.017c-16.575-13.587-24.975-34.767-24.975-62.95
				c0-4.713-3.82-8.533-8.533-8.533c-4.713,0-8.533,3.82-8.533,8.533c0,28.183-8.4,49.362-24.975,62.95
				c-19.249,14.347-43.847,19.474-67.225,14.012c-28.642-5.696-53.967,16.729-67.883,59.904c-1.258,3.829-1.817,6.221-1.817,6.221
				c-0.101,0.655-0.122,1.32-0.064,1.98H74.736c-5.765-21.941-23.15-100.942,4.008-170.808c10.808,12.975,28.742,29.3,44.975,19.912
				c2.661-1.509,4.309-4.327,4.321-7.386s-1.615-5.89-4.264-7.42c-2.649-1.53-5.914-1.524-8.557,0.014
				c-2.048,1.165-5.429-0.088-9.346-2.794c44.986-28.429,96.921-43.945,150.129-44.852c52.942,0,85.542-5.229,97.367-15.571
				c13.585,4.891,25.008,14.418,32.258,26.904c9.875,17.996,9.5,41.912-1.108,71.083c-1.051,2.866-0.49,6.076,1.47,8.416
				c1.961,2.34,5.022,3.454,8.029,2.921c3.006-0.533,5.498-2.632,6.535-5.504c3.003-8.147,5.358-16.519,7.043-25.037
				c10.072-4.771,18.866-11.867,25.657-20.705c27.109,69.766,9.763,148.861,4.007,170.825h-10.753
				c0.056-0.692,0.024-1.387-0.095-2.071C425.635,242.29,406.91,169.348,356.727,179.369z M452.268,324.269
				c-0.005,4.711-3.822,8.529-8.533,8.533h-21.509c1.785-9.673,2.867-18.33,3.518-25.6h9.457c4.713,0,8.533-3.82,8.533-8.533
				s-3.82-8.533-8.533-8.533h-8.515c0.048-3.197,0.002-5.173-0.018-5.727v-19.873h17.067c4.711,0.005,8.529,3.823,8.533,8.533
				V324.269z"/>
			<path d="M213.335,264.536c9.421,0.011,17.056,7.646,17.067,17.067c0,4.713,3.82,8.533,8.533,8.533s8.533-3.82,8.533-8.533
				c-0.02-18.843-15.29-34.113-34.133-34.133h-76.8c-4.713,0-8.533,3.82-8.533,8.533c0,4.713,3.82,8.533,8.533,8.533H213.335z"/>
			<path d="M213.335,311.469v-21.333c0.001-2.263-0.898-4.434-2.499-6.035c-1.6-1.6-3.771-2.499-6.035-2.499h-59.733
				c-4.713,0-8.533,3.82-8.533,8.533s3.82,8.533,8.533,8.533h8.533v12.8c0,16.495,13.372,29.867,29.867,29.867
				C199.963,341.336,213.335,327.964,213.335,311.469z M170.668,311.469v-12.8h25.6v12.8c0,7.069-5.731,12.8-12.8,12.8
				C176.399,324.269,170.668,318.538,170.668,311.469z"/>
			<path d="M375.468,247.469h-76.8c-18.843,0.02-34.113,15.29-34.133,34.133c0,4.713,3.82,8.533,8.533,8.533s8.533-3.82,8.533-8.533
				c0.011-9.421,7.646-17.056,17.067-17.067h76.8c4.713,0,8.533-3.82,8.533-8.533C384.001,251.29,380.181,247.469,375.468,247.469z"
				/>
			<path d="M366.935,281.602h-59.733c-2.263-0.001-4.434,0.898-6.035,2.499c-1.6,1.6-2.499,3.771-2.499,6.035v21.333
				c0,16.495,13.372,29.867,29.867,29.867s29.867-13.372,29.867-29.867v-12.8h8.533c4.713,0,8.533-3.82,8.533-8.533
				S371.648,281.602,366.935,281.602z M341.335,311.469c0,7.069-5.731,12.8-12.8,12.8c-7.069,0-12.8-5.731-12.8-12.8v-12.8h25.6
				V311.469z"/>
			<path d="M232.9,369.435c-1.6,1.6-2.499,3.771-2.499,6.035c-0.001,2.263,0.898,4.434,2.499,6.035c1.6,1.6,3.771,2.499,6.035,2.499
				h34.133c4.713,0,8.533-3.82,8.533-8.533s-3.82-8.533-8.533-8.533h-34.133C236.671,366.935,234.501,367.834,232.9,369.435z"/>
			<path d="M318.335,403.465c-0.15,0.15-16.25,14.671-62.333,14.671c-45.533,0-61.792-14.179-62.325-14.658
				c-3.367-3.25-8.722-3.182-12.005,0.152s-3.27,8.689,0.031,12.006c2,2.004,21.1,19.567,74.3,19.567s72.3-17.563,74.3-19.567
				c3.276-3.285,3.299-8.596,0.05-11.908C327.084,400.385,321.745,400.269,318.335,403.465z"/>
			<path d="M247.468,341.336c0,4.713,3.82,8.533,8.533,8.533c4.713,0,8.533-3.82,8.533-8.533v-17.067
				c0-4.713-3.82-8.533-8.533-8.533c-4.713,0-8.533,3.82-8.533,8.533V341.336z"/>
		</g>
	</g>
</g>
<g>
</g>
<g>
</g>
<g>
</g>
<g>
</g>
<g>
</g>
<g>
</g>
<g>
</g>
<g>
</g>
<g>
</g>
<g>
</g>
<g>
</g>
<g>
</g>
<g>
</g>
<g>
</g>
<g>
</g>
</svg>
